<?xml version="1.0" encoding="UTF-8"?>
<svg id="Camada_2" data-name="Camada 2" xmlns="http://www.w3.org/2000/svg" viewBox="0 0 17.66 31.96">
  <defs>
    <style>
      .cls-1 {
        fill: #010101;
      }
    </style>
  </defs>
  <g id="Camada_1-2" data-name="Camada 1">
    <path class="cls-1" d="M17.17,5.4s-.55,2.38-2.98,2.38h-2.54s-1.78-1.78-1.78-1.78v-2.54c0-2.42,2.38-2.98,2.38-2.98v-.49h-6.86v.49s2.38.54,2.38,2.98v2.54l-1.78,1.78h0s-2.54,0-2.54,0C1.03,7.78.49,5.4.49,5.4h-.49v6.86h.49s.56-2.38,2.98-2.38h2.54l1.78,1.78v16.84c0,2.42-2.37,2.98-2.37,2.98v.49h6.86v-.49s-2.39-.56-2.4-2.98V11.65s1.78-1.78,1.78-1.78h2.54c2.42,0,2.98,2.38,2.98,2.38h.48v-6.86h-.48Z"/>
  </g>
</svg>