<?xml version="1.0" encoding="UTF-8"?>
<svg id="Camada_2" data-name="Camada 2" xmlns="http://www.w3.org/2000/svg" viewBox="0 0 151.37 94.85">
  <defs>
    <style>
      .cls-1 {
        fill: #010101;
      }
    </style>
  </defs>
  <g id="Camada_1-2" data-name="Camada 1">
    <g>
      <g>
        <path class="cls-1" d="M4.96,80.96c.52.09,1.36.12,2.38.09,2-.03,3.45-1.05,3.45-4.35,0-3.1-1.86-3.83-3.42-3.83h-2.41v8.09ZM16.73,90.12c-1.22,0-2.38-.17-3.42-.75-1.42-.73-2.78-2.23-3.71-3.57-.84-1.22-1.51-2.38-2.18-3.51-.7.06-1.86.03-2.47-.03v3.74c0,1.8.17,3.28.55,3.71.09.12.09.26-.17.26H.23c-.26,0-.26-.14-.17-.26.38-.46.58-1.89.58-3.71v-10.47c0-1.83-.2-3.25-.58-3.71-.09-.12-.09-.26.17-.26h8.12c2.7,0,6.9.78,6.9,4.93,0,2.9-2.35,4.29-3.71,4.9.61.99,1.42,2.23,2.55,3.77,2.03,2.67,3.28,3.86,4.32,4.55.2.12.2.29.03.32-.35.06-.96.09-1.71.09"/>
        <path class="cls-1" d="M32.31,71.56c.43,0,.58.03.58.49l.03,2.44c-.09.09-.35.12-.49,0-.7-.73-2.47-1.57-4-1.57h-3.51v7.02h3.48c1.19,0,2.41-.58,2.76-.64.09,0,.15.06.17.09v2.49s-.09.06-.17.06c-.35-.06-1.39-.61-2.76-.61h-3.48v6.35c0,.81.03.87.75.87h2.7c2.18,0,4.15-1.54,4.82-2.18.2-.2.58-.14.58.06l-.64,3.05c-.12.46-.43.49-.58.49h-12.42c-.26,0-.26-.15-.17-.26.38-.46.58-1.89.58-3.71v-10.47c0-1.83-.2-3.28-.58-3.71-.09-.12-.09-.26.17-.26h12.19Z"/>
        <path class="cls-1" d="M42,88.59h2.67c4.06,0,5.63-3.45,5.63-8.21,0-4.03-1.57-7.51-5.63-7.51h-3.28v15c0,.52.03.72.61.72M36.43,89.72c.38-.46.58-1.89.58-3.71v-10.47c0-1.83-.2-3.28-.58-3.71-.09-.12-.09-.26.17-.26h8.82c6.64,0,9.75,3.94,9.75,8.76,0,5.43-3.16,9.66-9.81,9.66h-8.76c-.26,0-.26-.14-.17-.26"/>
        <path class="cls-1" d="M69.71,71.56c.43,0,.58.03.58.49l.03,2.44c-.09.09-.35.12-.49,0-.7-.73-2.47-1.57-4-1.57h-3.51v7.02h3.48c1.19,0,2.41-.58,2.76-.64.09,0,.14.06.17.09v2.49s-.09.06-.17.06c-.35-.06-1.39-.61-2.76-.61h-3.48v6.35c0,.81.03.87.76.87h2.7c2.18,0,4.15-1.54,4.82-2.18.2-.2.58-.14.58.06l-.64,3.05c-.12.46-.43.49-.58.49h-12.42c-.26,0-.26-.15-.17-.26.38-.46.58-1.89.58-3.71v-10.47c0-1.83-.2-3.28-.58-3.71-.09-.12-.09-.26.17-.26h12.19Z"/>
        <path class="cls-1" d="M74.55,73.36c-.23-.23-1.22-1.3-1.45-1.54-.06-.06-.06-.23.09-.26h4.53c.43,0,.52.03.78.32l10.18,12.3v-8.59c0-2.12-.41-3.34-.67-3.77-.09-.12-.06-.26.06-.26h2.93c.09,0,.14.15.03.26-.32.49-.67,1.68-.67,3.77v14.39c-.23.09-1.94.09-2.15-.03l-11.95-14.36v10.36c0,2.12.38,3.34.64,3.77.09.12.06.26-.06.26h-2.93c-.09,0-.15-.15-.06-.26.32-.49.7-1.68.7-3.77v-12.59Z"/>
        <path class="cls-1" d="M102.86,91.02c.81.31,2.52.81,2.52,1.74,0,1.37-1.34,2.1-2.74,2.1-.92,0-1.53-.29-2.22-.89-.04-.03-.05-.1-.02-.14l.19-.31c.04-.06.12-.07.17-.02.54.47,1.18.69,1.95.69s1.43-.25,1.43-.64c0-.84-1.7-.97-2.83-1.21-.1-.02-.15-.14-.09-.23l1.24-1.84.88.03-.46.74Z"/>
        <path class="cls-1" d="M102.28,90.39c-4.99-.43-8.59-3.6-8.59-9.52,0-6.41,4.38-9.78,10.18-9.78,3.02,0,5.11.52,6.06.99.49.26.61.35.49.99l-.35,1.97c-.14.15-.46.12-.58,0-.9-1.01-2.5-2.35-5.19-2.35-3.8,0-5.69,3.05-5.69,8.09s2.12,7.66,6.15,7.66c2.55,0,4.21-.75,5.4-1.6.2-.03.29,1.42.12,1.68-1.22,1.02-3.28,1.91-6.79,1.91h-.43"/>
        <path class="cls-1" d="M123.99,69.8c-.03.06-.1.09-.16.09-1.54-.13-3.28-.34-4.8-.34-.4,0-.82.61-1.22,1.28-.03.05-.09.07-.14.03l-.28-.18s-.06-.09-.03-.14l1.89-3.21c.04-.07.12-.11.19-.1,1.44.13,3.07.34,4.49.34.45,0,.88-.43,1.33-.99.04-.05.11-.07.17-.05l.25.1c.07.03.09.11.06.17l-1.75,3.01Z"/>
        <path class="cls-1" d="M117.02,82.46h5.48l-2.61-6.79-2.87,6.79ZM114.64,89.98h-3.19c-.17,0-.17-.14-.03-.26.52-.55,1.31-1.8,2.41-4.29l6.12-13.87h2.84l5.4,13.72c.73,1.89,1.57,3.57,2.21,4.35.09.14.09.35-.12.35h-5.13c-.29,0-.32-.09-.32-.35.09-.75-.46-2.41-1.25-4.41l-.58-1.48h-6.53l-.67,1.6c-.96,2.23-1.1,3.95-.9,4.38.03.12-.03.26-.26.26"/>
        <path class="cls-1" d="M146.47,80.75c0-4.76-1.57-8.18-5.43-8.18s-5.37,3.42-5.37,8.18,1.6,8.18,5.37,8.18,5.43-3.42,5.43-8.18M130.77,80.75c0-6.01,4.29-9.66,10.27-9.66s10.33,3.66,10.33,9.66-4.29,9.69-10.33,9.69-10.27-3.66-10.27-9.69"/>
      </g>
      <rect class="cls-1" x="30.17" y="55.47" width="1.28" height="6.89"/>
      <path class="cls-1" d="M38.75,58.83h1.21v2.75c-.72.58-1.72.88-2.7.88-2.14,0-3.71-1.49-3.71-3.54s1.57-3.54,3.73-3.54c1.15,0,2.12.38,2.77,1.12l-.81.79c-.54-.54-1.16-.79-1.9-.79-1.47,0-2.5,1-2.5,2.42s1.03,2.42,2.49,2.42c.49,0,.97-.1,1.42-.35v-2.15Z"/>
      <path class="cls-1" d="M45.16,56.55h-1.5v2.74h1.5c1.12,0,1.7-.51,1.7-1.38s-.58-1.37-1.7-1.37M46.9,62.36l-1.41-2.02c-.09,0-.18,0-.27,0h-1.55v2.01h-1.28v-6.89h2.83c1.81,0,2.93.92,2.93,2.45,0,1.04-.53,1.81-1.47,2.17l1.58,2.26h-1.38Z"/>
      <polygon class="cls-1" points="55.49 61.28 55.49 62.36 50.33 62.36 50.33 55.47 55.35 55.47 55.35 56.54 51.6 56.54 51.6 58.33 54.93 58.33 54.93 59.38 51.6 59.38 51.6 61.28 55.49 61.28"/>
      <path class="cls-1" d="M56.61,61.46l.73-.88c.37.51.83.79,1.37.79.71,0,1.07-.42,1.07-1.27v-3.56h-2.45v-1.07h3.73v4.56c0,1.62-.81,2.42-2.32,2.42-.87,0-1.65-.35-2.12-.99"/>
      <path class="cls-1" d="M67.48,59.76l-1.3-3.01-1.29,3.01h2.59ZM67.91,60.76h-3.44l-.68,1.59h-1.32l3.1-6.89h1.26l3.11,6.89h-1.34l-.69-1.59Z"/>
      <path class="cls-1" d="M79.84,60.36c0-.69-.52-.99-1.49-.99h-2.07v1.99h2.07c.96,0,1.49-.3,1.49-.99M76.29,56.47v1.9h1.81c.89,0,1.39-.31,1.39-.94s-.5-.96-1.39-.96h-1.81ZM81.13,60.49c0,1.18-.92,1.87-2.7,1.87h-3.42v-6.89h3.23c1.65,0,2.54.7,2.54,1.79,0,.71-.35,1.23-.89,1.51.74.24,1.24.82,1.24,1.71"/>
      <path class="cls-1" d="M87.28,59.76l-1.3-3.01-1.29,3.01h2.59ZM87.71,60.76h-3.44l-.68,1.59h-1.32l3.1-6.89h1.26l3.11,6.89h-1.34l-.69-1.59Z"/>
      <polygon class="cls-1" points="92.4 56.55 90.12 56.55 90.12 55.47 95.97 55.47 95.97 56.55 93.68 56.55 93.68 62.36 92.4 62.36 92.4 56.55"/>
      <rect class="cls-1" x="97.67" y="55.47" width="1.28" height="6.89"/>
      <path class="cls-1" d="M100.97,61.63l.44-.99c.55.44,1.43.76,2.27.76,1.07,0,1.52-.38,1.52-.9,0-1.48-4.09-.51-4.09-3.07,0-1.11.89-2.06,2.77-2.06.83,0,1.69.22,2.29.61l-.4.99c-.62-.36-1.3-.54-1.9-.54-1.06,0-1.5.41-1.5.93,0,1.47,4.08.51,4.08,3.04,0,1.1-.9,2.05-2.78,2.05-1.07,0-2.14-.34-2.72-.83"/>
      <polygon class="cls-1" points="109.78 56.55 107.5 56.55 107.5 55.47 113.34 55.47 113.34 56.55 111.06 56.55 111.06 62.36 109.78 62.36 109.78 56.55"/>
      <path class="cls-1" d="M118.75,59.76l-1.3-3.01-1.29,3.01h2.59ZM119.17,60.76h-3.44l-.68,1.59h-1.32l3.1-6.89h1.26l3.11,6.89h-1.34l-.69-1.59Z"/>
      <g>
        <path class="cls-1" d="M69.22,35.88c-.54-.27-1.06-.58-1.56-.92-.46-.31-.89-.65-1.31-1.01-.53-.46-1.02-.95-1.48-1.48-.36-.42-.7-.85-1.01-1.31-.34-.5-.65-1.02-.92-1.56-.07-.13-.23-.18-.36-.11l-1.58.91-5.85,3.38-.5.29c-.75.43-1.62.94-1.85.89-.17-.04-.25.06-.25.24v.21s0,.01,0,.02v1.81s0,0,0,.01c-.02.41.22.52.41.3.18-.2.33-.28,1.72-1.09l1.5-.87,5.64-3.26c.12-.07.26-.03.34.08.33.47.67.93,1.05,1.36.09.1.08.26-.01.35l-4.61,4.61-4.34,4.34s0,0,0,0l-.86.86c-.32.3-.51.45-.6.45-.17,0-.25.07-.25.25v1.17s0,0,0,0v.2c0,.14.12.26.26.26h1.11s0,0,0,0h.25c.18,0,.25-.08.25-.25,0-.09.15-.28.45-.59l5.2-5.2,4.61-4.61c.1-.1.25-.1.35-.01.44.37.89.72,1.36,1.05.11.08.15.22.08.34l-3.26,5.64-.3.52s0,0,0,.01c-.07.13-.14.25-.21.37l-1.23,2.13c-.11.16-.2.27-.28.32-.15.1-.05.29.1.29h1.84c.47.01.58.02.6-.18.03-.19.1-.35.57-1.18l.71-1.23,3.38-5.85.91-1.57c.07-.13.02-.29-.11-.36"/>
        <path class="cls-1" d="M82.05,10.02c-.08.13-.02.29.11.36.54.28,1.06.58,1.56.92.46.31.89.65,1.31,1.01.53.46,1.02.95,1.48,1.48.36.42.7.85,1.01,1.31.34.5.65,1.02.92,1.56.07.13.23.18.36.11l1.58-.91,4.14-2.39c1.25-.72,1.34-.7,1.63-.72.17,0,.19-.12.12-.24l-.43-.75c-.07-.12-.14-.25-.21-.37l-.44-.76c-.07-.13-.18-.16-.27-.02-.16.24-.19.33-1.5,1.09l-3.87,2.23c-.12.07-.26.03-.34-.08-.33-.47-.67-.93-1.05-1.36-.09-.1-.08-.26.01-.35l3.31-3.31c.94-.92,1.03-.94,1.3-1.02.16-.05.16-.17.05-.27l-.77-.77-.77-.77c-.1-.1-.21-.11-.27.05-.09.29-.1.37-1.34,1.62t0,0l-2.98,2.98c-.1.1-.25.1-.35.01-.44-.37-.89-.72-1.36-1.05-.11-.08-.15-.22-.08-.34l2.27-3.94c.73-1.25.81-1.28,1.05-1.43.14-.09.11-.2-.02-.27l-.74-.43c-.14-.08-.27-.16-.41-.24l-.73-.42c-.13-.07-.24-.05-.24.12-.02.29,0,.38-.75,1.69l-2.35,4.07-.91,1.57Z"/>
        <path class="cls-1" d="M68.42,8.44l-2.44-4.22c-.67-1.17-.65-1.27-.67-1.55,0-.17-.12-.19-.25-.12l-.74.42c-.13.07-.25.14-.38.22l-.77.44c-.13.07-.16.18-.02.27.26.17.33.19,1.21,1.71,0,0,0,0,0,0l2.11,3.65c.07.12.03.26-.08.34-.47.33-.93.67-1.36,1.05-.1.09-.25.08-.35-.01l-3.19-3.19c-1.03-1.04-1.04-1.13-1.13-1.41-.05-.16-.17-.16-.27-.05l-.77.77-.77.77c-.1.1-.11.21.05.27.27.09.36.1,1.41,1.13l3.19,3.19c.1.1.1.25.01.35-.37.43-.72.89-1.05,1.36-.08.11-.22.15-.34.08l-3.94-2.27c-1.24-.73-1.28-.81-1.43-1.05-.09-.14-.2-.11-.27.02l-.45.78c-.07.11-.13.23-.19.34l-.44.77c-.07.13-.05.24.12.25.3.01.39,0,1.91.87,0,0,0,0,0,0l3.86,2.23,1.58.91c.13.07.29.02.36-.11.27-.54.58-1.06.92-1.56.31-.46.65-.89,1-1.31.46-.53.95-1.02,1.48-1.48.42-.36.85-.7,1.31-1.01.5-.34,1.02-.65,1.56-.92.13-.07.18-.23.11-.36l-.91-1.57Z"/>
        <path class="cls-1" d="M98.59,21.89c-.27.14-.33.2-2.09.2h-4.22c-.14,0-.25-.11-.26-.24-.04-.58-.12-1.15-.22-1.7-.02-.13.06-.26.19-.3l4.28-1.15c1.5-.4,1.58-.36,1.86-.3.17.04.22-.06.18-.21l-.2-.74c-.05-.21-.11-.43-.17-.64l-.19-.72c-.04-.14-.13-.2-.26-.09-.23.21-.27.28-1.97.73t0,0l-4.3,1.15-1.76.47c-.14.04-.22.19-.18.33.19.57.34,1.16.45,1.76.1.53.17,1.08.21,1.64.03.34.04.69.04,1.04s-.01.7-.04,1.04c-.04.56-.11,1.1-.21,1.64-.11.6-.26,1.19-.45,1.75-.05.14.03.29.18.33l1.76.47,5.3,1.42s0,0,0,0c1.54.41,1.67.46,2.02.72.15.1.27-.04.27-.18v-.25s0,0,0-.01v-1.62s0-.02,0-.02v-.27c0-.15-.07-.23-.23-.15-.17.08-.53.03-1.01-.09l-5.59-1.5c-.13-.03-.21-.16-.19-.3.1-.56.18-1.13.22-1.7.01-.14.12-.24.26-.24h4.22c1.76,0,1.82.06,2.09.2.15.08.23,0,.23-.15v-2.18c0-.14-.07-.23-.23-.15"/>
        <path class="cls-1" d="M52.56,30.32c0,.15.12.29.27.18.36-.26.49-.3,2.02-.72l5.31-1.42,1.76-.47c.15-.04.22-.19.18-.33-.19-.57-.34-1.15-.45-1.76-.1-.53-.18-1.08-.21-1.64-.03-.34-.04-.69-.04-1.04s.01-.7.04-1.04c.04-.56.11-1.1.21-1.64.11-.6.26-1.19.45-1.76.05-.14-.03-.29-.18-.33l-1.76-.47-4.3-1.15s0,0,0,0c-1.7-.45-1.74-.53-1.97-.73-.13-.11-.22-.05-.26.09l-.19.72c-.06.21-.12.42-.17.64l-.2.74c-.04.14.01.24.18.21.29-.06.37-.1,1.92.31l4.22,1.13c.13.03.21.16.19.3-.1.56-.18,1.13-.22,1.71-.01.14-.12.24-.26.24h-4.22c-1.76,0-1.82-.06-2.09-.2-.15-.08-.23,0-.23.15v2.18c0,.15.07.23.23.15.27-.14.33-.2,2.09-.2h4.22c.14,0,.25.1.26.24.04.58.12,1.15.22,1.71.02.13-.06.26-.19.3l-5.58,1.5c-.48.12-.85.17-1.02.09-.15-.08-.23,0-.23.15v.28s0,.01,0,.02v1.62s0,0,0,0v.25Z"/>
        <path class="cls-1" d="M98.81,35.19c0-.18-.08-.28-.25-.24-.17.04-.75-.26-1.35-.6l-.99-.57-5.85-3.38-1.58-.91c-.13-.07-.29-.02-.36.11-.28.54-.58,1.06-.92,1.56-.31.46-.65.89-1,1.31-.46.53-.95,1.02-1.48,1.48-.42.36-.85.69-1.31,1.01-.5.34-1.02.65-1.56.92-.13.07-.18.23-.11.36l.91,1.57,3.38,5.85.49.85c.67,1.17.76,1.36.79,1.57.03.19.14.19.61.18h1.84c.15,0,.25-.19.1-.29-.07-.05-.16-.16-.26-.3l-1.76-3.05-3.26-5.64c-.07-.12-.03-.27.08-.34.47-.33.93-.67,1.36-1.05.1-.09.25-.08.35.01l8.93,8.93s0,0,.01.02c.04.04.07.07.1.1l.72.72c.33.34.49.54.49.64,0,.17.07.25.25.25h.25s0,0,0,0h1.11c.14,0,.26-.12.26-.26v-1.11s0,0,0,0v-.25c0-.18-.08-.25-.25-.25-.08,0-.26-.14-.56-.41l-9.85-9.85c-.1-.1-.1-.25-.01-.35.37-.43.72-.89,1.05-1.36.08-.11.22-.15.34-.08l5.64,3.26,1.49.86s0,0,.01,0c1.4.81,1.54.89,1.72,1.09.2.22.43.12.41-.29,0,0,0-.01,0-.02v-1.81s0-.02,0-.03v-.2Z"/>
        <path class="cls-1" d="M82.81,1.33c.11-.13.05-.22-.09-.26l-.71-.19c-.22-.06-.44-.12-.66-.18l-.73-.2c-.14-.04-.24.01-.21.18.06.29.1.37-.31,1.92l-1.13,4.23c-.03.13-.16.21-.3.19-.56-.1-1.13-.18-1.7-.22-.14-.01-.24-.12-.24-.26V1.89c0-1.34.07-1.42.19-1.66.08-.15,0-.23-.15-.23h-2.18c-.14,0-.23.07-.15.23.14.27.2.33.2,2.09v4.22c0,.14-.1.25-.24.26-.58.04-1.14.12-1.7.22-.13.03-.26-.06-.3-.19l-1.21-4.53c-.33-1.26-.29-1.35-.23-1.62.04-.17-.07-.22-.21-.18l-.75.2c-.21.05-.41.11-.62.17l-.73.2c-.14.04-.2.13-.09.26.2.23.27.27.73,1.97,0,0,0,0,0,0l1.15,4.3.47,1.76c.04.14.19.22.33.18.57-.19,1.16-.34,1.76-.45.53-.1,1.08-.18,1.64-.21.34-.03.69-.04,1.04-.04s.7.01,1.04.04c.56.04,1.1.11,1.64.21.6.11,1.19.26,1.76.45.14.05.29-.03.33-.18l.47-1.76,1.25-4.65c.37-1.35.45-1.41.64-1.62"/>
        <path class="cls-1" d="M84.03,19.7s-.55,2.38-2.98,2.38h-2.54s-1.78-1.78-1.78-1.78v-2.54c0-2.42,2.38-2.98,2.38-2.98v-.49h-6.86v.49s2.38.54,2.38,2.98v2.54l-1.78,1.78h0s-2.54,0-2.54,0c-2.44,0-2.98-2.38-2.98-2.38h-.49v6.86h.49s.56-2.38,2.98-2.38h2.54l1.78,1.78v15.95c0,3.61-3.33,3.87-3.33,3.87v.49h8.9v-.49s-3.49-.39-3.49-3.87v-15.95s1.78-1.78,1.78-1.78h2.54c2.42,0,2.98,2.38,2.98,2.38h.48v-6.86h-.48Z"/>
      </g>
    </g>
  </g>
</svg>